<svg xmlns="http://www.w3.org/2000/svg" xmlns:xlink="http://www.w3.org/1999/xlink" width="794" zoomAndPan="magnify" viewBox="0 0 595.5 842.249979" height="1123" preserveAspectRatio="xMidYMid meet" version="1.0"><defs><clipPath id="id1"><path d="M 61.128906 196.570312 L 515.253906 196.570312 L 515.253906 645.789062 L 61.128906 645.789062 Z M 61.128906 196.570312 " clip-rule="nonzero"/></clipPath><clipPath id="id2"><path d="M 113.164062 316 L 513 316 L 513 645.789062 L 113.164062 645.789062 Z M 113.164062 316 " clip-rule="nonzero"/></clipPath></defs><g clip-path="url(#id1)"><path fill="#996f38" d="M 441.375 601.78125 C 440.101562 601.617188 438.648438 601.242188 438.097656 600.089844 C 437.667969 599.203125 437.925781 598.140625 438.230469 597.195312 C 441.433594 587.335938 449.101562 579.007812 453.21875 569.71875 C 454.710938 580.96875 456.199219 592.214844 457.695312 603.457031 C 452.453125 601.894531 446.808594 602.496094 441.375 601.78125 Z M 509.347656 286.148438 C 507.859375 281.351562 506.367188 276.5625 504.878906 271.769531 C 509.40625 257.742188 512.835938 243.300781 510.90625 228.828125 C 510.484375 225.648438 509.757812 222.402344 507.871094 219.828125 C 505.976562 217.25 502.65625 215.492188 499.546875 216.253906 C 497.648438 216.722656 496.089844 218.03125 494.621094 219.308594 C 484.023438 228.484375 473.988281 238.285156 464.554688 248.648438 C 457.261719 244.253906 449.273438 240.996094 440.992188 239.027344 C 434.152344 237.394531 427.121094 236.636719 420.101562 236.839844 C 418.496094 234.117188 416.640625 231.519531 414.710938 229.039062 C 409.433594 222.222656 403.410156 215.863281 399.449219 208.207031 C 397.957031 205.332031 396.738281 202.238281 394.566406 199.832031 C 392.390625 197.417969 388.925781 195.816406 385.875 196.933594 C 383.734375 197.714844 382.246094 199.652344 381.078125 201.609375 C 375.082031 211.699219 374.6875 224.0625 374.882812 235.804688 C 375.0625 246.84375 375.605469 257.859375 376.523438 268.859375 C 372.023438 275.148438 367.8125 281.621094 364.410156 288.542969 C 359.703125 298.136719 356.578125 308.742188 356.835938 319.375 C 356.863281 320.730469 356.949219 322.089844 357.09375 323.445312 C 357.683594 329.058594 359.394531 334.632812 362.128906 339.597656 C 360.714844 340.871094 359.175781 342.0625 357.582031 343.238281 C 350.789062 348.152344 342.796875 352.457031 337.902344 359.082031 C 334.199219 364.09375 332.441406 370.273438 329.257812 375.636719 C 322.847656 386.453125 311.480469 392.917969 300.234375 398.84375 C 298.757812 399.628906 297.277344 400.402344 295.804688 401.171875 C 272.984375 413.195312 250.878906 427.417969 233.859375 446.785156 C 221.109375 461.296875 211.917969 478.597656 206.453125 497.0625 C 197.40625 527.476562 198.4375 561.050781 210.101562 590.484375 C 202.210938 589.929688 194.265625 589.445312 186.304688 589.128906 C 174.363281 588.652344 162.425781 588.546875 150.621094 589.1875 C 146.703125 589.386719 142.804688 589.683594 138.9375 590.0625 C 134.90625 590.457031 130.894531 590.953125 126.910156 591.5625 C 110.898438 594.039062 95.359375 598.359375 80.707031 605.484375 C 79.703125 605.960938 78.710938 606.457031 77.714844 606.972656 C 72.421875 609.703125 67.144531 612.949219 63.875 617.925781 C 60.609375 622.886719 59.910156 629.992188 63.691406 634.582031 C 66.089844 637.492188 69.445312 638.734375 73.160156 639.027344 C 77.90625 639.417969 83.25 638.257812 87.9375 637.074219 C 98.359375 634.4375 108.988281 632.640625 119.699219 631.695312 C 125.285156 631.191406 130.894531 630.925781 136.5 630.894531 C 140.644531 630.859375 144.78125 630.960938 148.921875 631.183594 C 155.082031 631.515625 161.210938 632.128906 167.316406 633.027344 C 181.167969 635.058594 194.992188 638.535156 208.964844 637.722656 C 216.550781 637.28125 224.335938 635.285156 230.917969 631.574219 C 235.703125 633.980469 240.355469 636.816406 245.398438 638.582031 C 250.355469 640.316406 255.609375 640.996094 260.824219 641.664062 C 265.90625 642.316406 271 642.960938 276.082031 643.613281 C 284.734375 644.71875 293.410156 645.828125 302.128906 645.828125 C 309.675781 645.828125 317.214844 644.984375 324.566406 643.347656 C 329.757812 642.179688 335.132812 640.441406 338.679688 636.472656 C 339.734375 635.269531 340.558594 633.808594 341.074219 632.261719 C 354.410156 634.316406 368.425781 632.148438 380.449219 626.039062 C 385.796875 634.148438 392.398438 642.953125 402.035156 643.984375 C 404.511719 644.25 407.101562 643.9375 409.269531 642.734375 C 414.207031 640.015625 415.773438 633.597656 415.476562 627.972656 C 415.464844 627.871094 415.464844 627.773438 415.460938 627.671875 C 417.320312 628.015625 419.203125 627.839844 420.800781 626.839844 C 422.46875 625.789062 423.585938 623.984375 425.34375 623.105469 C 426.851562 622.363281 428.625 622.390625 430.304688 622.449219 C 434.25 622.5625 438.203125 622.683594 442.148438 622.808594 C 446.925781 622.953125 451.84375 623.078125 456.324219 621.425781 C 457.171875 621.109375 458.015625 620.707031 458.808594 620.25 C 461.65625 627.125 465.265625 633.742188 471.453125 637.636719 C 479.222656 642.515625 492.089844 639.851562 493.808594 630.847656 C 494.503906 627.183594 493.253906 623.46875 492.257812 619.871094 C 487.308594 601.914062 488.8125 582.894531 490.347656 564.335938 C 491.046875 555.820312 491.753906 547.316406 492.457031 538.808594 C 492.777344 535.039062 493.078125 531.273438 493.398438 527.515625 C 494.53125 513.816406 495.679688 500.070312 498.640625 486.652344 C 501.15625 475.292969 504.984375 464.074219 505.222656 452.441406 C 505.394531 444.371094 503.820312 436.304688 504.542969 428.269531 C 505.230469 420.554688 508.019531 413.136719 508.738281 405.421875 C 509.503906 397.136719 507.851562 388.875 506.300781 380.640625 C 504.792969 372.582031 503.378906 364.527344 504.410156 356.457031 C 505.632812 346.875 510.21875 338.039062 512.988281 328.800781 C 513.800781 326.089844 514.457031 323.339844 514.820312 320.527344 C 516.339844 308.925781 512.824219 297.316406 509.347656 286.148438 " fill-opacity="1" fill-rule="nonzero"/></g><g clip-path="url(#id2)"><path fill="#f2eff1" d="M 126.910156 591.5625 C 126.394531 592.472656 125.78125 593.339844 125.191406 594.140625 C 121.617188 598.980469 118.542969 604.175781 116.023438 609.636719 C 114.683594 612.527344 113.480469 615.628906 113.757812 618.800781 C 114.148438 623.351562 117.445312 627.050781 119.449219 631.152344 C 119.535156 631.335938 119.621094 631.503906 119.699219 631.695312 C 125.285156 631.191406 130.894531 630.925781 136.5 630.894531 C 135.027344 626.535156 133.511719 622.160156 133.433594 617.617188 C 133.28125 608.222656 139.289062 599.25 138.9375 590.0625 C 134.90625 590.457031 130.894531 590.953125 126.910156 591.5625 Z M 457.695312 603.457031 C 456.199219 592.214844 454.710938 580.96875 453.21875 569.71875 C 449.101562 579.007812 441.433594 587.335938 438.230469 597.195312 C 437.925781 598.140625 437.667969 599.203125 438.097656 600.089844 C 438.648438 601.242188 440.101562 601.617188 441.375 601.78125 C 446.808594 602.496094 452.453125 601.894531 457.695312 603.457031 Z M 512.988281 328.800781 C 510.21875 338.039062 505.632812 346.875 504.410156 356.460938 C 503.378906 364.527344 504.792969 372.582031 506.300781 380.640625 C 504.71875 384.515625 502.308594 388.191406 499.570312 391.246094 C 492.5 399.105469 483.222656 405.082031 477.683594 414.082031 C 472.640625 422.28125 471.214844 432.621094 473.875 441.882812 C 476 449.316406 480.539062 455.808594 483.492188 462.960938 C 487.425781 472.488281 488.46875 483.191406 486.441406 493.296875 C 484.566406 502.683594 480.117188 511.6875 480.425781 521.25 C 480.660156 528.792969 485.761719 536.871094 492.457031 538.808594 C 491.753906 547.316406 491.046875 555.820312 490.347656 564.335938 C 488.8125 582.894531 487.308594 601.914062 492.257812 619.871094 C 493.253906 623.46875 494.503906 627.183594 493.808594 630.847656 C 492.089844 639.851562 479.222656 642.515625 471.453125 637.636719 C 465.265625 633.742188 461.65625 627.125 458.808594 620.25 C 458.015625 620.707031 457.171875 621.109375 456.324219 621.425781 C 451.84375 623.078125 446.925781 622.953125 442.148438 622.808594 C 438.203125 622.683594 434.25 622.5625 430.304688 622.449219 C 428.625 622.390625 426.851562 622.363281 425.34375 623.105469 C 423.585938 623.984375 422.46875 625.789062 420.800781 626.839844 C 419.203125 627.839844 417.320312 628.015625 415.460938 627.671875 C 415.464844 627.773438 415.464844 627.871094 415.476562 627.972656 C 415.773438 633.597656 414.207031 640.015625 409.269531 642.734375 C 407.101562 643.9375 404.511719 644.25 402.035156 643.984375 C 392.398438 642.953125 385.796875 634.148438 380.449219 626.039062 C 368.425781 632.148438 354.410156 634.316406 341.074219 632.261719 C 340.558594 633.808594 339.734375 635.269531 338.679688 636.472656 C 335.132812 640.441406 329.757812 642.179688 324.566406 643.347656 C 317.214844 644.984375 309.675781 645.828125 302.128906 645.828125 C 293.410156 645.828125 284.734375 644.71875 276.082031 643.613281 C 271 642.960938 265.90625 642.316406 260.824219 641.664062 C 255.609375 640.996094 250.355469 640.316406 245.398438 638.582031 C 240.355469 636.816406 235.703125 633.980469 230.917969 631.574219 C 224.335938 635.285156 216.550781 637.28125 208.964844 637.722656 C 194.992188 638.535156 181.167969 635.058594 167.316406 633.027344 C 161.210938 632.128906 155.082031 631.515625 148.921875 631.183594 C 149.632812 628.230469 149.75 625.140625 149.214844 622.160156 C 151.25 622.871094 153.238281 623.9375 155.261719 624.707031 C 158.765625 626.039062 163.53125 626.058594 165.371094 622.792969 C 166.324219 621.074219 166.171875 618.894531 167.203125 617.214844 C 169.769531 613.027344 176.488281 615.449219 180.941406 613.328125 C 185.007812 611.394531 186.152344 606.199219 186.449219 601.703125 C 186.714844 597.511719 186.671875 593.3125 186.304688 589.128906 C 194.265625 589.445312 202.210938 589.929688 210.101562 590.484375 C 198.4375 561.050781 197.40625 527.476562 206.453125 497.0625 C 212.066406 503.046875 219.136719 507.78125 226.371094 511.816406 C 235.648438 517.003906 245.941406 521.386719 256.535156 520.5625 C 267.136719 519.742188 277.835938 512.238281 279.109375 501.703125 C 279.804688 495.9375 277.714844 490.246094 276.738281 484.515625 C 275.761719 478.789062 276.308594 472.058594 280.867188 468.449219 C 284.207031 465.804688 288.480469 465.660156 292.863281 466.0625 C 295.394531 466.292969 297.964844 466.714844 300.410156 466.929688 C 315.550781 468.304688 331.148438 460.238281 338.78125 447.105469 C 341.914062 441.730469 346.386719 434.4375 352.1875 436.679688 C 355.792969 438.070312 357.058594 442.597656 360.121094 444.953125 C 364.640625 448.417969 371.71875 445.796875 374.777344 440.992188 C 377.828125 436.191406 377.898438 430.117188 377.527344 424.4375 C 376.609375 410.160156 373.574219 396.019531 368.558594 382.617188 C 363.742188 369.773438 356.996094 356.628906 357.582031 343.238281 C 359.175781 342.0625 360.714844 340.871094 362.128906 339.597656 C 359.394531 334.632812 357.683594 329.058594 357.09375 323.445312 C 356.949219 322.089844 356.863281 320.730469 356.835938 319.375 C 360.8125 317.972656 364.601562 317.050781 367.410156 319.808594 C 370.503906 322.863281 369.28125 328.046875 370.515625 332.21875 C 372.410156 338.652344 380.257812 341.746094 386.878906 340.636719 C 393.5 339.53125 399.125 335.351562 404.472656 331.292969 C 409.945312 327.128906 415.742188 322.460938 418.90625 316.570312 C 430.953125 318.492188 442.332031 324.660156 450.390625 333.832031 C 455.761719 339.929688 461.191406 348.027344 469.304688 347.695312 C 478.027344 347.339844 482.917969 337.003906 482.648438 328.273438 C 482.601562 326.941406 482.5 325.554688 482.910156 324.273438 C 483.785156 321.585938 486.863281 320.09375 489.710938 320.152344 C 492.546875 320.207031 495.199219 321.472656 497.753906 322.730469 C 502.644531 325.152344 507.707031 327.730469 512.988281 328.800781 " fill-opacity="1" fill-rule="nonzero"/></g><path fill="#fac264" d="M 80.707031 605.484375 C 81.019531 611.820312 82.597656 618.667969 80.722656 624.652344 C 79.398438 628.917969 76.398438 632.433594 74.316406 636.375 C 73.875 637.214844 73.472656 638.105469 73.160156 639.027344 C 77.90625 639.417969 83.25 638.257812 87.9375 637.074219 C 98.359375 634.4375 108.988281 632.640625 119.699219 631.695312 C 119.621094 631.503906 119.535156 631.335938 119.449219 631.152344 C 117.445312 627.050781 114.148438 623.351562 113.757812 618.800781 C 113.480469 615.628906 114.683594 612.527344 116.023438 609.636719 C 118.542969 604.175781 121.617188 598.980469 125.191406 594.140625 C 125.78125 593.339844 126.394531 592.472656 126.910156 591.5625 C 110.898438 594.039062 95.359375 598.359375 80.707031 605.484375 Z M 138.9375 590.0625 C 139.289062 599.25 133.28125 608.222656 133.433594 617.617188 C 133.511719 622.160156 135.027344 626.535156 136.5 630.894531 C 140.644531 630.859375 144.78125 630.960938 148.921875 631.183594 C 149.632812 628.230469 149.75 625.140625 149.214844 622.160156 C 149.023438 621.074219 148.746094 619.992188 148.375 618.941406 C 147.832031 617.40625 147.113281 615.898438 146.992188 614.273438 C 146.558594 608.671875 153.039062 605.015625 154.6875 599.628906 C 155.871094 595.785156 153.984375 591.316406 150.621094 589.1875 C 146.703125 589.386719 142.804688 589.683594 138.9375 590.0625 Z M 300.234375 398.84375 C 298.757812 399.628906 297.277344 400.402344 295.804688 401.171875 C 272.984375 413.195312 250.878906 427.417969 233.859375 446.785156 C 221.109375 461.296875 211.917969 478.597656 206.453125 497.0625 C 212.066406 503.046875 219.136719 507.78125 226.371094 511.816406 C 235.648438 517.003906 245.941406 521.386719 256.535156 520.5625 C 267.136719 519.742188 277.835938 512.238281 279.109375 501.703125 C 279.804688 495.9375 277.714844 490.246094 276.738281 484.515625 C 275.761719 478.789062 276.308594 472.058594 280.867188 468.449219 C 284.207031 465.804688 288.480469 465.660156 292.863281 466.0625 C 292.421875 462.761719 293.800781 458.808594 295.863281 455.984375 C 299.121094 451.523438 303.773438 447.542969 304.40625 442.050781 C 304.871094 437.96875 302.953125 434.035156 301.519531 430.167969 C 297.847656 420.203125 297.449219 409.085938 300.234375 398.84375 Z M 420.101562 236.839844 C 418.496094 234.117188 416.640625 231.519531 414.710938 229.039062 C 409.433594 222.222656 403.410156 215.863281 399.449219 208.207031 C 397.957031 205.332031 396.738281 202.238281 394.566406 199.832031 C 392.390625 197.417969 388.925781 195.816406 385.875 196.933594 C 383.734375 197.714844 382.246094 199.652344 381.078125 201.609375 C 375.082031 211.699219 374.6875 224.0625 374.882812 235.804688 C 375.0625 246.84375 375.605469 257.859375 376.523438 268.859375 C 372.023438 275.148438 367.8125 281.621094 364.410156 288.542969 C 359.703125 298.136719 356.578125 308.742188 356.835938 319.375 C 360.8125 317.972656 364.601562 317.050781 367.410156 319.808594 C 370.503906 322.863281 369.28125 328.046875 370.515625 332.21875 C 372.410156 338.652344 380.257812 341.746094 386.878906 340.636719 C 393.5 339.53125 399.125 335.351562 404.472656 331.292969 C 409.945312 327.128906 415.742188 322.460938 418.90625 316.570312 C 419.988281 314.574219 420.757812 312.449219 421.113281 310.148438 C 421.992188 304.527344 420.179688 298.816406 420.492188 293.125 C 421.078125 282.519531 428.765625 273.886719 433.820312 264.53125 C 438.039062 256.695312 440.488281 247.910156 440.992188 239.027344 C 434.152344 237.394531 427.121094 236.636719 420.101562 236.839844 Z M 506.300781 380.640625 C 507.851562 388.875 509.503906 397.136719 508.738281 405.421875 C 508.019531 413.136719 505.230469 420.554688 504.542969 428.269531 C 503.820312 436.304688 505.394531 444.371094 505.222656 452.441406 C 504.984375 464.074219 501.15625 475.292969 498.640625 486.652344 C 495.679688 500.070312 494.53125 513.816406 493.398438 527.515625 C 493.078125 531.273438 492.777344 535.039062 492.457031 538.808594 C 485.761719 536.871094 480.660156 528.792969 480.425781 521.25 C 480.117188 511.6875 484.566406 502.683594 486.441406 493.296875 C 488.46875 483.191406 487.425781 472.488281 483.492188 462.960938 C 480.539062 455.808594 476 449.316406 473.875 441.882812 C 471.214844 432.621094 472.640625 422.28125 477.683594 414.082031 C 483.222656 405.082031 492.5 399.105469 499.570312 391.246094 C 502.308594 388.191406 504.71875 384.515625 506.300781 380.640625 " fill-opacity="1" fill-rule="nonzero"/><path fill="#996f38" d="M 77.714844 606.972656 C 72.421875 609.703125 67.144531 612.949219 63.875 617.925781 C 60.609375 622.886719 59.910156 629.992188 63.691406 634.582031 C 66.089844 637.492188 69.445312 638.734375 73.160156 639.027344 C 73.472656 638.105469 73.875 637.214844 74.316406 636.375 C 76.398438 632.433594 79.398438 628.917969 80.722656 624.652344 C 82.597656 618.667969 81.019531 611.820312 80.707031 605.484375 C 79.703125 605.960938 78.710938 606.457031 77.714844 606.972656 Z M 150.621094 589.1875 C 153.984375 591.316406 155.871094 595.785156 154.6875 599.628906 C 153.039062 605.015625 146.558594 608.671875 146.992188 614.273438 C 147.113281 615.898438 147.832031 617.40625 148.375 618.941406 C 148.746094 619.992188 149.023438 621.074219 149.214844 622.160156 C 151.25 622.871094 153.238281 623.9375 155.261719 624.707031 C 158.765625 626.039062 163.53125 626.058594 165.371094 622.792969 C 166.324219 621.074219 166.171875 618.894531 167.203125 617.214844 C 169.769531 613.027344 176.488281 615.449219 180.941406 613.328125 C 185.007812 611.394531 186.152344 606.199219 186.449219 601.703125 C 186.714844 597.511719 186.671875 593.3125 186.304688 589.128906 C 174.363281 588.652344 162.425781 588.546875 150.621094 589.1875 Z M 368.558594 382.617188 C 363.742188 369.773438 356.996094 356.628906 357.582031 343.238281 C 350.789062 348.152344 342.796875 352.457031 337.902344 359.082031 C 334.199219 364.09375 332.441406 370.273438 329.257812 375.636719 C 322.847656 386.453125 311.480469 392.917969 300.234375 398.84375 C 297.449219 409.085938 297.847656 420.203125 301.519531 430.167969 C 302.953125 434.035156 304.871094 437.96875 304.40625 442.050781 C 303.773438 447.542969 299.121094 451.523438 295.863281 455.984375 C 293.800781 458.808594 292.421875 462.761719 292.863281 466.0625 C 295.394531 466.292969 297.964844 466.714844 300.410156 466.929688 C 315.550781 468.304688 331.148438 460.238281 338.78125 447.105469 C 341.914062 441.730469 346.386719 434.4375 352.1875 436.679688 C 355.792969 438.070312 357.058594 442.597656 360.121094 444.953125 C 364.640625 448.417969 371.71875 445.796875 374.777344 440.992188 C 377.828125 436.191406 377.898438 430.117188 377.527344 424.4375 C 376.609375 410.160156 373.574219 396.019531 368.558594 382.617188 Z M 509.347656 286.148438 C 512.824219 297.316406 516.339844 308.925781 514.820312 320.527344 C 514.457031 323.339844 513.800781 326.089844 512.988281 328.800781 C 507.707031 327.730469 502.644531 325.152344 497.753906 322.730469 C 495.199219 321.472656 492.546875 320.207031 489.710938 320.152344 C 486.863281 320.09375 483.785156 321.585938 482.910156 324.273438 C 482.5 325.554688 482.601562 326.941406 482.648438 328.273438 C 482.917969 337.003906 478.027344 347.339844 469.304688 347.695312 C 461.191406 348.027344 455.761719 339.929688 450.390625 333.832031 C 442.332031 324.660156 430.953125 318.492188 418.90625 316.570312 C 419.988281 314.574219 420.757812 312.449219 421.113281 310.148438 C 421.992188 304.527344 420.179688 298.816406 420.492188 293.125 C 421.078125 282.519531 428.765625 273.886719 433.820312 264.53125 C 438.039062 256.695312 440.488281 247.910156 440.992188 239.027344 C 449.273438 240.996094 457.261719 244.253906 464.554688 248.648438 C 473.988281 238.285156 484.023438 228.484375 494.621094 219.308594 C 496.089844 218.03125 497.648438 216.722656 499.546875 216.253906 C 502.65625 215.492188 505.976562 217.25 507.871094 219.828125 C 509.757812 222.402344 510.484375 225.648438 510.902344 228.828125 C 512.835938 243.300781 509.40625 257.742188 504.878906 271.769531 C 506.367188 276.5625 507.859375 281.351562 509.347656 286.148438 " fill-opacity="1" fill-rule="nonzero"/><path fill="#f68c64" d="M 500.617188 263.816406 C 502.832031 257.429688 504.308594 250.804688 505 244.085938 C 505.203125 242.117188 505.339844 240.09375 504.785156 238.203125 C 504.21875 236.304688 502.832031 234.539062 500.914062 234.050781 C 497.695312 233.25 494.828125 236.109375 492.757812 238.699219 C 489.070312 243.292969 485.382812 247.863281 481.691406 252.449219 C 479.746094 254.863281 480.527344 258.449219 483.300781 259.851562 C 486.699219 261.5625 489.917969 263.636719 492.890625 266.019531 C 495.554688 268.148438 499.503906 267.042969 500.617188 263.816406 Z M 399.820312 246.628906 C 396.582031 248.617188 393.519531 250.882812 390.660156 253.371094 C 387.625 256.027344 382.902344 254.097656 382.570312 250.078125 C 381.949219 242.40625 381.863281 234.679688 382.320312 226.984375 C 382.503906 224.0625 383.304688 220.464844 386.152344 219.785156 C 389.015625 219.097656 391.367188 221.984375 392.867188 224.515625 C 395.925781 229.675781 398.828125 234.9375 401.550781 240.285156 C 402.695312 242.527344 401.96875 245.304688 399.820312 246.628906 " fill-opacity="1" fill-rule="nonzero"/><path fill="#fac264" d="M 474.234375 280.191406 C 474.25 284.210938 468.40625 283.296875 461.207031 283.320312 C 454.003906 283.347656 448.167969 284.3125 448.15625 280.292969 C 448.140625 276.269531 453.96875 272.992188 461.167969 272.960938 C 468.371094 272.933594 474.21875 276.171875 474.234375 280.191406 " fill-opacity="1" fill-rule="nonzero"/><path fill="#996f38" d="M 407.457031 280.242188 C 407.457031 284.261719 401.617188 283.320312 394.417969 283.320312 C 387.214844 283.320312 381.378906 284.261719 381.378906 280.242188 C 381.378906 276.222656 387.214844 272.960938 394.417969 272.960938 C 401.617188 272.960938 407.457031 276.222656 407.457031 280.242188 " fill-opacity="1" fill-rule="nonzero"/><path fill="#3e393a" d="M 483.804688 355.835938 C 486.707031 354.007812 484.132812 350.507812 481.441406 352.179688 C 462.90625 363.6875 442.375 375.789062 419.648438 372.523438 C 408.636719 370.9375 398.421875 366.132812 389.308594 359.898438 C 384.390625 356.53125 379.832031 352.722656 375.367188 348.78125 C 375.292969 348.714844 375.21875 348.644531 375.144531 348.574219 C 377.773438 346.242188 380.472656 343.988281 383.234375 341.820312 C 387.921875 338.148438 393.40625 335.039062 397.714844 330.941406 C 398.578125 330.125 397.296875 329.269531 396.476562 329.554688 C 390.28125 331.753906 384.519531 336.28125 379.355469 340.265625 C 376.972656 342.105469 374.664062 344.035156 372.40625 346.023438 C 369.578125 343.3125 366.765625 340.515625 363.527344 338.398438 C 363.0625 338.09375 361.667969 338.429688 362.132812 339.1875 C 364.144531 342.527344 366.992188 345.507812 369.875 348.328125 C 368.175781 349.894531 366.5 351.492188 364.875 353.136719 C 355.378906 362.710938 347.234375 373.457031 340.558594 385.164062 C 339.464844 387.082031 343.007812 387.667969 343.960938 386.105469 C 350.828125 374.804688 358.96875 364.277344 368.347656 354.941406 C 369.722656 353.574219 371.125 352.242188 372.550781 350.921875 C 372.90625 351.265625 373.261719 351.609375 373.605469 351.945312 C 378.105469 356.355469 382.949219 360.441406 388.113281 364.039062 C 397.203125 370.371094 407.730469 375.042969 418.734375 376.671875 C 442.632812 380.203125 464.316406 368.101562 483.804688 355.835938 Z M 449.007812 333.949219 C 447.894531 334.195312 448.359375 335.675781 449.425781 335.511719 C 462.765625 333.4375 476.003906 337.34375 487.355469 344.320312 C 498.621094 351.242188 507.542969 360.855469 517.792969 369.0625 C 518.753906 369.828125 520.734375 368.609375 519.777344 367.464844 C 503.058594 347.421875 476.539062 327.792969 449.007812 333.949219 Z M 533.679688 343.375 C 511.628906 322.808594 479.035156 316.78125 450.609375 326.097656 C 448.648438 326.746094 450.050781 328.863281 451.769531 328.367188 C 478.96875 320.515625 508.867188 327.746094 530.601562 345.550781 C 532.089844 346.773438 535.433594 345.007812 533.679688 343.375 Z M 308.28125 356.246094 C 332.875 336.472656 363.121094 325.941406 394.777344 328.058594 C 396.859375 328.195312 397.585938 325.410156 395.273438 325.203125 C 363.238281 322.28125 329.796875 332.6875 305.964844 354.476562 C 304.5625 355.757812 307.09375 357.199219 308.28125 356.246094 Z M 392.28125 628.914062 C 392.015625 628.785156 391.511719 628.910156 391.441406 629.242188 C 391.148438 630.628906 391.746094 632.183594 391.578125 633.644531 C 391.414062 635.125 390.324219 636.59375 390.734375 638.027344 C 390.894531 638.589844 391.851562 638.726562 392.292969 638.535156 C 395.558594 637.15625 395.421875 630.4375 392.28125 628.914062 Z M 471.921875 626.445312 C 473.273438 630.398438 472.746094 634.003906 472.617188 638.058594 C 472.578125 639.277344 474.757812 639.148438 475.167969 638.292969 C 477.074219 634.3125 476.015625 629.496094 474.035156 625.75 C 473.503906 624.746094 471.511719 625.238281 471.921875 626.445312 Z M 484.890625 620.910156 C 484.097656 620.183594 482.160156 620.941406 483.050781 622.011719 C 484.855469 624.175781 486.0625 626.59375 486.726562 629.332031 C 487.238281 631.429688 487.046875 633.777344 487.988281 635.734375 C 488.378906 636.546875 489.769531 636.476562 490.1875 635.726562 C 492.894531 630.875 488.390625 624.125 484.890625 620.910156 Z M 458.152344 602.542969 C 458.125 602.109375 457.285156 602.050781 457.222656 602.480469 C 456.367188 608.347656 455.820312 616.628906 459.269531 621.78125 C 459.890625 622.707031 461.945312 622.574219 461.816406 621.1875 C 461.539062 618.054688 460.085938 615.046875 459.417969 611.949219 C 458.761719 608.851562 458.351562 605.695312 458.152344 602.542969 Z M 403.855469 630.707031 C 405.867188 634.304688 405.929688 637.914062 405.582031 641.925781 C 405.472656 643.152344 407.515625 643.535156 407.976562 642.433594 C 409.734375 638.234375 408.707031 633.601562 406.289062 629.859375 C 405.59375 628.777344 403.128906 629.410156 403.855469 630.707031 Z M 318.769531 629.691406 C 317.367188 629.417969 316.394531 631.351562 317.941406 631.910156 C 322.582031 633.585938 325.117188 637.453125 327.132812 641.710938 C 327.855469 643.238281 330.769531 642.441406 330.589844 640.75 C 329.941406 634.769531 324.289062 630.777344 318.769531 629.691406 Z M 449.242188 315.917969 C 451.921875 311.847656 454.382812 307.871094 458.757812 305.390625 C 463.984375 302.425781 469.363281 303.011719 474.996094 304.070312 C 476.144531 304.289062 477.554688 303 476.238281 302.136719 C 465.671875 295.230469 449.460938 303.828125 446.976562 315.582031 C 446.695312 316.917969 448.757812 316.65625 449.242188 315.917969 Z M 398.339844 339.039062 C 397.492188 341.929688 400.769531 344.0625 403.167969 344.988281 C 406.261719 346.179688 409.625 345.96875 412.699219 344.8125 C 416.519531 343.375 419.550781 340.640625 421.824219 337.3125 C 423.996094 341.023438 427.390625 344.050781 431.4375 345.34375 C 436.488281 346.960938 443.621094 346.042969 446.039062 340.722656 C 446.332031 340.070312 445.476562 339.601562 444.941406 339.960938 C 440.230469 343.113281 434.859375 343.203125 430.335938 339.605469 C 427.796875 337.589844 426.15625 334.945312 424.539062 332.261719 C 424.679688 331.925781 424.8125 331.589844 424.941406 331.25 L 428.011719 329.765625 C 435.136719 326.324219 432.683594 315.625 424.773438 315.625 L 417.800781 315.625 C 409.894531 315.625 407.441406 326.324219 414.5625 329.765625 L 418.046875 331.449219 C 418.574219 331.707031 419.125 331.894531 419.6875 332.019531 C 418.164062 334.851562 416.445312 337.550781 413.886719 339.535156 C 411.023438 341.753906 407.71875 342.699219 404.230469 341.574219 C 402.257812 340.9375 400.925781 339.429688 398.972656 338.808594 C 398.75 338.738281 398.421875 338.769531 398.339844 339.039062 Z M 388.90625 322.152344 C 393.144531 322.152344 396.582031 316.09375 396.582031 308.617188 C 396.582031 305.492188 395.976562 302.628906 394.96875 300.335938 C 396.910156 301.523438 398.296875 303.199219 399.980469 304.78125 C 400.65625 305.410156 402.484375 305.203125 402.304688 303.984375 C 401.15625 296.0625 389.152344 292.179688 383.109375 296.835938 C 382.039062 297.660156 382.523438 298.710938 383.492188 299.03125 C 382.097656 301.480469 381.234375 304.867188 381.234375 308.617188 C 381.234375 316.09375 384.671875 322.152344 388.90625 322.152344 Z M 310.648438 604.90625 C 295.359375 600.109375 264.542969 600.652344 262.300781 579.601562 C 262.207031 578.738281 260.761719 578.890625 260.707031 579.714844 C 259.472656 598.335938 283.199219 602.898438 296.804688 606.117188 C 305.386719 608.144531 314.121094 610.457031 321.328125 615.78125 C 328.929688 621.394531 333.628906 629.695312 336.875 638.410156 C 337.644531 640.472656 341.277344 639.914062 341.042969 637.605469 C 339.402344 621.132812 325.664062 609.605469 310.648438 604.90625 Z M 436.511719 600.195312 C 433.46875 604.585938 431.210938 609.445312 427.984375 613.734375 C 424.578125 618.265625 420.539062 622.171875 416.21875 625.808594 C 416.03125 615.691406 414.984375 605.5625 414.714844 595.441406 C 414.398438 583.3125 414.335938 571.171875 414.527344 559.039062 C 414.699219 548.597656 414.683594 538.023438 415.59375 527.613281 C 415.9375 523.667969 416.507812 519.671875 417.703125 515.882812 C 419.269531 510.925781 422.253906 507.425781 425.050781 503.179688 C 425.359375 502.703125 424.605469 502.382812 424.25 502.597656 C 417.320312 506.847656 413.992188 515.789062 412.71875 523.433594 C 410.933594 534.117188 411.125 545.296875 410.890625 556.097656 C 410.644531 567.589844 410.625 579.082031 410.828125 590.574219 C 411.046875 603.074219 410.757812 615.933594 412.214844 628.351562 C 412.390625 629.867188 414.808594 629.945312 415.8125 629 C 415.992188 628.976562 416.15625 628.929688 416.296875 628.84375 C 425.878906 623.089844 437.308594 612.300781 439.226562 600.734375 C 439.492188 599.152344 437.167969 599.257812 436.511719 600.195312 Z M 456.769531 521.367188 C 461.707031 510.554688 473.957031 503.425781 474.808594 490.800781 C 474.867188 489.933594 473.296875 490.046875 473.085938 490.753906 C 469.089844 504.246094 455.050781 511.242188 450.777344 524.660156 C 448.507812 531.792969 448.460938 539.355469 448.707031 546.765625 C 448.84375 550.894531 449.046875 555.019531 449.214844 559.144531 C 449.402344 563.542969 449.132812 568.207031 450.105469 572.507812 C 450.566406 574.574219 454.183594 574.097656 454.425781 572.121094 C 455.496094 563.414062 453.746094 553.972656 453.460938 545.1875 C 453.203125 537.167969 453.375 528.800781 456.769531 521.367188 Z M 362.316406 537.582031 C 361.117188 523.207031 361.238281 509.386719 354.832031 496.121094 C 351.332031 488.875 347.324219 482.054688 345.007812 474.289062 C 342.816406 466.9375 341.835938 459.339844 341.78125 451.679688 C 341.773438 451.011719 340.46875 450.984375 340.382812 451.617188 C 338.582031 465.632812 341.613281 478.835938 347.757812 491.433594 C 351.304688 498.703125 354.601562 505.667969 355.902344 513.734375 C 357.125 521.347656 357.171875 529.097656 357.757812 536.773438 C 360.097656 567.269531 367.105469 598.464844 379.601562 626.46875 C 380.476562 628.433594 384.921875 627.054688 384.085938 624.960938 C 372.820312 596.691406 364.851562 568.019531 362.316406 537.582031 Z M 226.753906 622.429688 C 227.324219 623.851562 225.121094 624.5625 224.238281 623.660156 C 215.496094 614.726562 210.511719 598.472656 211.519531 586.183594 C 211.628906 584.847656 213.917969 584.976562 214.207031 586.140625 C 215.769531 592.433594 216.871094 598.804688 218.96875 604.96875 C 221.046875 611.070312 224.371094 616.492188 226.753906 622.429688 " fill-opacity="1" fill-rule="nonzero"/></svg>